<svg width="34" height="33" viewBox="0 0 34 33" xmlns="http://www.w3.org/2000/svg" xmlns:xlink="http://www.w3.org/1999/xlink"><title>Close</title><desc>Created with Sketch.</desc><defs><path d="M16.5 10.922l-9.772-9.774c-1.536-1.536-4.025-1.528-5.565.012-1.551 1.551-1.546 4.032-.012 5.566l9.772 9.774-9.772 9.774c-1.533 1.534-1.539 4.015.012 5.566 1.54 1.54 4.029 1.548 5.565.012l9.772-9.774 9.772 9.774c1.536 1.536 4.025 1.528 5.565-.012 1.551-1.551 1.546-4.032.012-5.566l-9.772-9.774 9.772-9.774c1.533-1.534 1.539-4.015-.012-5.566-1.54-1.54-4.029-1.548-5.565-.012l-9.772 9.774z" id="a"/></defs><g transform="translate(.281)" fill="none"><mask><use xlink:href="#a"/></mask><use fill="#000" xlink:href="#a"/></g></svg>