<svg width="43" height="26" viewBox="0 0 43 26" xmlns="http://www.w3.org/2000/svg"><title>menu list</title><desc>Created with Sketch.</desc><path d="M2.937 5.2h36.75c1.452 0 2.625-1.162 2.625-2.6 0-1.438-1.173-2.6-2.625-2.6h-36.75c-1.452 0-2.625 1.162-2.625 2.6 0 1.438 1.173 2.6 2.625 2.6zm36.75 15.6h-36.75c-1.452 0-2.625 1.162-2.625 2.6 0 1.438 1.173 2.6 2.625 2.6h36.75c1.452 0 2.625-1.162 2.625-2.6 0-1.438-1.173-2.6-2.625-2.6zm0-10.4h-36.75c-1.452 0-2.625 1.162-2.625 2.6 0 1.438 1.173 2.6 2.625 2.6h36.75c1.452 0 2.625-1.162 2.625-2.6 0-1.438-1.173-2.6-2.625-2.6z" fill="#000"/></svg>