<svg width="31" height="30" viewBox="0 0 31 30" xmlns="http://www.w3.org/2000/svg"><title>refresh feed</title><desc>Created with Sketch.</desc><path d="M4.11 15c0-6.212 5.038-11.25 11.25-11.25 2.297 0 4.425.694 6.206 1.875h-.581c-1.037 0-1.875.838-1.875 1.875s.838 1.875 1.875 1.875h5.625c1.037 0 1.875-.838 1.875-1.875v-5.625c0-1.037-.838-1.875-1.875-1.875s-1.875.838-1.875 1.875v1.427c-2.569-2.063-5.824-3.302-9.375-3.302-8.284 0-15 6.716-15 15 0 1.037.838 1.875 1.875 1.875s1.875-.838 1.875-1.875zm24.375-1.875c-1.037 0-1.875.838-1.875 1.875 0 6.212-5.038 11.25-11.25 11.25-2.297 0-4.425-.696-6.206-1.875h.581c1.037 0 1.875-.838 1.875-1.875s-.838-1.875-1.875-1.875h-5.625c-1.037 0-1.875.838-1.875 1.875v5.625c0 1.037.838 1.875 1.875 1.875s1.875-.838 1.875-1.875v-1.427c2.569 2.063 5.824 3.302 9.375 3.302 8.284 0 15-6.716 15-15 0-1.037-.838-1.875-1.875-1.875z" fill="#000"/></svg>